<svg width="24" height="24" viewBox="0 0 24 24" fill="none" xmlns="http://www.w3.org/2000/svg">
<path d="M13.9501 5H10.0499C8.8138 5 7.70424 5.75815 7.25502 6.90972L5.31584 14C5.1904 14.3215 4.9905 14.6088 4.73254 14.8381L4.5945 14.9608C4.21635 15.2969 4 15.7787 4 16.2846C4 17.2628 4.79302 18.0559 5.77126 18.0559H18.2287C19.207 18.0559 20 17.2628 20 16.2846C20 15.7787 19.7836 15.2969 19.4055 14.9608L19.2675 14.8381C19.0095 14.6088 18.8096 14.3215 18.6842 14L16.745 6.90972C16.2958 5.75815 15.1862 5 13.9501 5Z" stroke="#282930" stroke-width="1.5" stroke-linecap="round"/>
<path opacity="0.4" d="M9.12744 20.5C9.75991 21.4067 10.8107 22 12.0001 22C13.1895 22 14.2403 21.4067 14.8728 20.5M13.5001 3.5C13.5001 4.32843 12.8285 5 12.0001 5C11.1717 5 10.5001 4.32843 10.5001 3.5C10.5001 2.67157 11.1717 2 12.0001 2C12.8285 2 13.5001 2.67157 13.5001 3.5Z" stroke="#282930" stroke-width="1.5" stroke-linecap="round"/>
</svg>
