<svg width="24" height="24" viewBox="0 0 24 24" fill="none" xmlns="http://www.w3.org/2000/svg">
<path fill-rule="evenodd" clip-rule="evenodd" d="M10.1801 1.74023C11.3061 1.08659 12.6939 1.08659 13.8199 1.74023L19.9332 5.28898C21.0587 5.94234 21.75 7.14833 21.75 8.45125V15.5487C21.75 16.8517 21.0587 18.0577 19.9332 18.711L13.8199 22.2598C12.6939 22.9134 11.3061 22.9134 10.1801 22.2598L4.06684 18.711C2.94132 18.0577 2.25 16.8517 2.25 15.5487V8.45125C2.25 7.14833 2.94132 5.94234 4.06684 5.28898L10.1801 1.74023ZM13.0668 3.03749C12.4065 2.65417 11.5935 2.65417 10.9332 3.03749L4.81991 6.58624C4.1591 6.96984 3.75 7.68025 3.75 8.45125V15.5487C3.75 16.3198 4.1591 17.0302 4.81991 17.4138L10.9332 20.9625C11.5935 21.3458 12.4065 21.3458 13.0668 20.9625L19.1801 17.4138C19.8409 17.0302 20.25 16.3198 20.25 15.5487V8.45125C20.25 7.68025 19.8409 6.96984 19.1801 6.58624L13.0668 3.03749ZM12 9.41667C10.5414 9.41667 9.375 10.582 9.375 12C9.375 13.418 10.5414 14.5833 12 14.5833C13.4586 14.5833 14.625 13.418 14.625 12C14.625 10.582 13.4586 9.41667 12 9.41667ZM7.875 12C7.875 9.73608 9.73064 7.91667 12 7.91667C14.2694 7.91667 16.125 9.73608 16.125 12C16.125 14.2639 14.2694 16.0833 12 16.0833C9.73064 16.0833 7.875 14.2639 7.875 12Z" fill="#282930"/>
</svg>
