<svg width="24" height="24" viewBox="0 0 24 24" fill="none" xmlns="http://www.w3.org/2000/svg">
<path d="M8.73611 10C8.18679 9.38625 7.3885 9 6.5 9C4.84315 9 3.5 10.3431 3.5 12C3.5 13.6569 4.84315 15 6.5 15C7.3885 15 8.18679 14.6137 8.73611 14M8.73611 10C9.21115 10.5308 9.5 11.2316 9.5 12C9.5 12.7684 9.21115 13.4692 8.73611 14M8.73611 10L14.6707 6M8.73611 14L14.6707 18M14.6707 18C14.5602 18.3128 14.5 18.6494 14.5 19C14.5 20.6569 15.8431 22 17.5 22C19.1569 22 20.5 20.6569 20.5 19C20.5 17.3431 19.1569 16 17.5 16C16.1938 16 15.0825 16.8348 14.6707 18ZM14.6707 6C14.5602 5.68722 14.5 5.35064 14.5 5C14.5 3.34315 15.8431 2 17.5 2C19.1569 2 20.5 3.34315 20.5 5C20.5 6.65685 19.1569 8 17.5 8C16.1938 8 15.0825 7.16519 14.6707 6Z" stroke="#282930" stroke-width="1.5" stroke-linecap="round"/>
</svg>
